# xmcd CD database file generated by OrangeCD 6.3
#
# Track frame offsets:
#	150
#	13764
#	28076
#	40736
#	55151
#	68542
#	81994
#	93803
#	105326
#	119112
#	131951
#	145156
#	158504
#	172468
#
# Disc length: 2458 seconds
#
# Revision: 1
# Processed by: cddbd v1.5.2PL0 Copyright (c) Steve Scherf et al.
# Submitted via: OrangeCD 6.3
#
DISCID=bd09980e
DTITLE=Various Artist - Big Blues Collection
DYEAR=1900
DGENRE=
TTITLE0=John Lee Hooker - Hobo Blues
TTITLE1=John Lee Hooker - Sally Mae
TTITLE2=John Lee Hooker - Weeping Willow Boogie
TTITLE3=John Lee Hooker - Four Women In My Life
TTITLE4=John Lee Hooker - Drifting From Door To Door
TTITLE5=John Lee Hooker - Crawling King Snake
TTITLE6=John Lee Hooker - Let Your Daddy Ride
TTITLE7=John Lee Hooker - Queen Bee
TTITLE8=John Lee Hooker - Bad Boy
TTITLE9=John Lee Hooker - Down Child
TTITLE10=John Lee Hooker - Wednesday Evening
TTITLE11=John Lee Hooker - Need Somebody
TTITLE12=John Lee Hooker - I'm In The Mood
TTITLE13=John Lee Hooker - The Howling Wolf
EXTD=
EXTT0=
EXTT1=
EXTT2=
EXTT3=
EXTT4=
EXTT5=
EXTT6=
EXTT7=
EXTT8=
EXTT9=
EXTT10=
EXTT11=
EXTT12=
EXTT13=
PLAYORDER=
